<?xml version="1.0" encoding="UTF-8"?>
<svg xmlns="http://www.w3.org/2000/svg" viewBox="0 0 293 293" role="img" aria-label="AGUILA">
<path d="M0 0 C-6.39492732 8.09806613 -14.41930936 11.16980828 -23.75 14.6875 C-25.15440956 15.23306409 -26.55806229 15.78058059 -27.9609375 16.33007812 C-30.70659503 17.40343313 -33.45535658 18.46814889 -36.20678711 19.52661133 C-41.51624635 21.57810789 -46.76173035 23.77375544 -52 26 C-52.95305023 26.40449875 -52.95305023 26.40449875 -53.925354 26.81716919 C-58.3349423 28.68962471 -62.74086788 30.57052426 -67.14477539 32.45629883 C-69.4297641 33.43418932 -71.71584809 34.40948827 -74.00195312 35.38476562 C-81.78846732 38.71405852 -89.52143497 42.12260049 -97.1965332 45.70239258 C-101.53591679 47.71091159 -105.92872986 49.58985176 -110.33203125 51.453125 C-114.7500144 53.35543565 -118.85924955 55.54978849 -123 58 C-116.8135107 57.40911552 -111.22330864 56.08505982 -105.3125 54.1875 C-104.36536133 53.88400635 -103.41822266 53.5805127 -102.44238281 53.26782227 C-91.38456758 49.61304517 -80.69742526 45.06881758 -69.9828186 40.52455139 C-65.02890037 38.42572308 -60.05933217 36.3669305 -55.08203125 34.32421875 C-54.33007477 34.01558395 -53.57811829 33.70694916 -52.80337524 33.38896179 C-50.5565719 32.4672625 -48.30956585 31.54605912 -46.0625 30.625 C-43.30275597 29.49371339 -40.54357773 28.36107018 -37.78515625 27.2265625 C-37.13477386 26.95938919 -36.48439148 26.69221588 -35.81430054 26.41694641 C-32.51584042 25.05682997 -29.22934428 23.67377112 -25.95654297 22.25292969 C-25.3109996 21.97291107 -24.66545624 21.69289246 -24.00035095 21.40438843 C-22.22963321 20.63320842 -20.46129311 19.85657564 -18.69311523 19.07958984 C-16 18 -16 18 -14 18 C-19.32010143 30.41357 -31.86618111 38.27538543 -43.84204102 43.15893555 C-64.38903379 51.17655147 -85.10248207 57.74256256 -106.67919922 62.296875 C-111.50140906 63.3178987 -116.31380766 64.38211928 -121.1262207 65.44824219 C-123.48175363 65.96940167 -125.83831613 66.48593676 -128.19604492 66.99707031 C-133.23153258 68.09921444 -138.15508927 69.20433378 -143 71 C-143 71.66 -143 72.32 -143 73 C-147.99658081 73.6245726 -150.35621738 73.11073069 -154.4375 70.0625 C-156.49609375 68.41015625 -156.49609375 68.41015625 -158 67 C-158 66.67 -158 66.34 -158 66 C-156.2508503 65.66223316 -154.50063855 65.32996329 -152.75 65 C-151.77546875 64.814375 -150.8009375 64.62875 -149.796875 64.4375 C-147 64 -147 64 -143 64 C-143 63.34 -143 62.68 -143 62 C-147.23634304 62.40387737 -151.47214466 62.81292793 -155.70751953 63.22680664 C-157.1487876 63.36690738 -158.59019456 63.50558678 -160.03173828 63.64282227 C-162.1022689 63.8401853 -164.17224825 64.04263361 -166.2421875 64.24609375 C-167.4885498 64.36654053 -168.73491211 64.4869873 -170.01904297 64.61108398 C-172.92140527 64.82414308 -172.92140527 64.82414308 -175 66 C-174.030625 66.46148437 -173.06125 66.92296875 -172.0625 67.3984375 C-170.70722474 68.05500824 -169.35315192 68.71406426 -168 69.375 C-167.28465088 69.72425537 -166.56930176 70.07351074 -165.83227539 70.43334961 C-159.74140207 73.47911899 -154.05349302 77.0049572 -148.49414062 80.93701172 C-145.14367445 83.18084581 -143.54542164 84.00532407 -139.3984375 83.96484375 C-135.97645212 82.99331457 -133.25700957 81.78589648 -130.1875 80 C-129.25292969 79.46375 -128.31835938 78.9275 -127.35546875 78.375 C-126.57816406 77.92125 -125.80085938 77.4675 -125 77 C-120.65146018 74.82573009 -115.34141642 75.84111722 -110.75 76.875 C-105.61190987 78.0009395 -100.47847309 78.51024183 -95.25 79 C-88.13058358 79.66771307 -81.08396928 80.49566379 -74.01171875 81.55859375 C-70.01632799 82.14416983 -66.01628459 82.58452228 -62 83 C-63.51294925 86.70296419 -65.6805874 88.7200164 -68.6875 91.3125 C-71.71045622 93.95974595 -74.65431692 96.60197684 -77.4375 99.5 C-81.08680627 103.21783785 -85.11162951 106.41200686 -89.171875 109.66796875 C-92.66801914 112.55083899 -95.95490329 115.62396681 -99.22265625 118.76171875 C-106.29664336 124.4626957 -114.21966146 128.19221851 -122.625 131.5 C-123.57342773 131.87946777 -124.52185547 132.25893555 -125.49902344 132.64990234 C-128.32873179 133.77692495 -131.16363481 134.88985493 -134 136 C-134.83692383 136.33161133 -135.67384766 136.66322266 -136.53613281 137.00488281 C-138.7702899 137.88845294 -141.00862574 138.75992646 -143.25 139.625 C-143.91080566 139.88474609 -144.57161133 140.14449219 -145.25244141 140.41210938 C-146.81352401 141.0016383 -148.40500982 141.50956184 -150 142 C-150.66 141.67 -151.32 141.34 -152 141 C-144.48020244 135.43653373 -136.82108483 130.11892985 -129.0581665 124.90310669 C-119.5277826 118.49595425 -110.06656644 112.02825185 -100.8828125 105.12890625 C-92.07744159 98.62629494 -92.07744159 98.62629494 -86.1875 97.8125 C-82.78606549 97.57454767 -82.78606549 97.57454767 -80 96 C-81.11109131 95.98018066 -82.22218262 95.96036133 -83.36694336 95.93994141 C-93.27838315 95.75675168 -103.18731924 95.52561327 -113.0960083 95.22744751 C-117.11523882 95.10678444 -121.13310717 94.99008202 -125.15380859 94.93359375 C-139.42672518 94.70179649 -148.873359 93.29882917 -159.50146484 83.32910156 C-161.82884711 81.26486743 -164.37412999 79.66134504 -167 78 C-166.34 79.65 -165.68 81.3 -165 83 C-168.05450079 82.34200096 -170.61707638 81.2644784 -173.4375 79.9375 C-180.30710531 77.19168431 -187.70046751 76.2314423 -194.6875 79.10546875 C-199.78141236 82.23051696 -202.52039799 85.60956086 -205 91 C-205.66 91 -206.32 91 -207 91 C-207.34467952 84.65534364 -207.38211613 79.60162985 -204 74 C-199.56750533 69.29886929 -195.1540414 65.17335258 -188.47265625 64.89453125 C-185.97722847 64.87703176 -183.49373859 64.9128402 -181 65 C-180.773125 64.29875 -180.54625 63.5975 -180.3125 62.875 C-177.32252141 56.32552308 -172.49555694 51.97309074 -166 49 C-164.13315625 48.51037022 -162.26436639 48.02669367 -160.38549805 47.58544922 C-155.47943262 46.38140205 -150.65314684 44.87842855 -145.8125 43.4375 C-144.64283691 43.09033936 -143.47317383 42.74317871 -142.26806641 42.38549805 C-132.20583557 39.38606365 -122.17758808 36.28125725 -112.15551758 33.15063477 C-105.78678035 31.16388583 -99.41166161 29.21827467 -93 27.375 C-85.81790279 25.30987745 -78.7570159 22.92331945 -71.68066406 20.52392578 C-65.31644901 18.38644357 -58.93549104 16.54263392 -52.421875 14.921875 C-48.21539851 13.78862334 -44.12273488 12.40319336 -40 11 C-38.09805852 10.36467988 -36.19569213 9.7306308 -34.29296875 9.09765625 C-33.29330078 8.76443359 -32.29363281 8.43121094 -31.26367188 8.08789062 C-22.10546875 5.03515625 -22.10546875 5.03515625 -19.07958984 4.03564453 C-16.94752621 3.31864644 -14.82318435 2.57842546 -12.70556641 1.81982422 C-11.6438623 1.44486816 -10.5821582 1.06991211 -9.48828125 0.68359375 C-8.05222534 0.16430298 -8.05222534 0.16430298 -6.5871582 -0.36547852 C-3.90334956 -1.0237043 -2.56167085 -0.93566849 0 0 Z " fill="#E8E8E8" transform="translate(264,72)"/>
<path d="M0 0 C0.99 0 1.98 0 3 0 C2.67 1.32 2.34 2.64 2 4 C3.32 4.33 4.64 4.66 6 5 C5.34 5.33 4.68 5.66 4 6 C4.969375 6.46148437 5.93875 6.92296875 6.9375 7.3984375 C8.29277526 8.05500824 9.64684808 8.71406426 11 9.375 C12.07302368 9.89888306 12.07302368 9.89888306 13.16772461 10.43334961 C19.25859793 13.47911899 24.94650698 17.0049572 30.50585938 20.93701172 C33.85632555 23.18084581 35.45457836 24.00532407 39.6015625 23.96484375 C43.02354788 22.99331457 45.74299043 21.78589648 48.8125 20 C49.74707031 19.46375 50.68164062 18.9275 51.64453125 18.375 C52.42183594 17.92125 53.19914062 17.4675 54 17 C58.34853982 14.82573009 63.65858358 15.84111722 68.25 16.875 C73.38809013 18.0009395 78.52152691 18.51024183 83.75 19 C90.86941642 19.66771307 97.91603072 20.49566379 104.98828125 21.55859375 C108.98367201 22.14416983 112.98371541 22.58452228 117 23 C115.48705075 26.70296419 113.3194126 28.7200164 110.3125 31.3125 C107.28954378 33.95974595 104.34568308 36.60197684 101.5625 39.5 C97.91319373 43.21783785 93.88837049 46.41200686 89.828125 49.66796875 C86.33198086 52.55083899 83.04509671 55.62396681 79.77734375 58.76171875 C72.70335664 64.4626957 64.78033854 68.19221851 56.375 71.5 C54.9523584 72.06920166 54.9523584 72.06920166 53.50097656 72.64990234 C50.67126821 73.77692495 47.83636519 74.88985493 45 76 C44.16307617 76.33161133 43.32615234 76.66322266 42.46386719 77.00488281 C40.2297101 77.88845294 37.99137426 78.75992646 35.75 79.625 C35.08919434 79.88474609 34.42838867 80.14449219 33.74755859 80.41210938 C32.18647599 81.0016383 30.59499018 81.50956184 29 82 C28.01 81.505 28.01 81.505 27 81 C34.51979756 75.43653373 42.17891517 70.11892985 49.9418335 64.90310669 C59.4722174 58.49595425 68.93343356 52.02825185 78.1171875 45.12890625 C86.92255841 38.62629494 86.92255841 38.62629494 92.8125 37.8125 C96.21393451 37.57454767 96.21393451 37.57454767 99 36 C97.88890869 35.98018066 96.77781738 35.96036133 95.63305664 35.93994141 C85.72161685 35.75675168 75.81268076 35.52561327 65.9039917 35.22744751 C61.88476118 35.10678444 57.86689283 34.99008202 53.84619141 34.93359375 C39.57327482 34.70179649 30.126641 33.29882917 19.49853516 23.32910156 C17.17115289 21.26486743 14.62587001 19.66134504 12 18 C12.66 19.65 13.32 21.3 14 23 C10.94549921 22.34200096 8.38292362 21.2644784 5.5625 19.9375 C-1.30710531 17.19168431 -8.70046751 16.2314423 -15.6875 19.10546875 C-20.78141236 22.23051696 -23.52039799 25.60956086 -26 31 C-26.66 31 -27.32 31 -28 31 C-28.34467952 24.65534364 -28.38211613 19.60162985 -25 14 C-20.56750533 9.29886929 -16.1540414 5.17335258 -9.47265625 4.89453125 C-6.97722847 4.87703176 -4.49373859 4.9128402 -2 5 C-1.34 3.35 -0.68 1.7 0 0 Z " fill="#D2D2D2" transform="translate(85,132)"/>
<path d="M0 0 C4.86309561 -0.0398018 9.72290587 -0.02099629 14.5859375 0.0234375 C10.81409093 4.70751309 6.9553851 8.60728368 2.1484375 12.2109375 C0.90544308 13.1617064 -0.33671663 14.11356738 -1.578125 15.06640625 C-2.21266602 15.55157715 -2.84720703 16.03674805 -3.50097656 16.53662109 C-5.38165373 17.99824998 -7.22596331 19.49511723 -9.0625 21.01171875 C-17.46408948 27.93642681 -26.17149025 34.03064268 -35.41552734 39.78027344 C-37.29255229 40.94785357 -39.16081406 42.12824053 -41.02734375 43.3125 C-54.74036052 51.91737774 -54.74036052 51.91737774 -60.4140625 54.0234375 C-61.0740625 53.6934375 -61.7340625 53.3634375 -62.4140625 53.0234375 C-58.30667749 47.99243416 -54.19717066 42.96376182 -50.05078125 37.96484375 C-44.63711627 31.43126462 -39.25205733 24.89235388 -34.1015625 18.1484375 C-33.30492188 17.12492187 -32.50828125 16.10140625 -31.6875 15.046875 C-30.16351991 13.02013859 -28.70954946 10.93896238 -27.328125 8.8125 C-24.39971803 4.57774047 -22.29776892 1.55538883 -17.21875 0.12109375 C-14.01341743 -0.13159445 -10.90007121 -0.18702689 -7.68847656 -0.05566406 C-5.12265959 0.03357217 -2.56722282 0.02254323 0 0 Z " fill="#9A9A9A" transform="translate(135.4140625,169.9765625)"/>
<path d="M0 0 C0.99 0 1.98 0 3 0 C2.67 1.32 2.34 2.64 2 4 C3.32 4.33 4.64 4.66 6 5 C5.34 5.33 4.68 5.66 4 6 C5.00417969 6.4846875 6.00835937 6.969375 7.04296875 7.46875 C16.02907083 11.85587449 24.58955323 16.58505482 33 22 C32.01 22.495 32.01 22.495 31 23 C31 23.66 31 24.32 31 25 C32.98 25.33 34.96 25.66 37 26 C36.01 26.66 35.02 27.32 34 28 C33.505 29.485 33.505 29.485 33 31 C34.98 30.67 36.96 30.34 39 30 C39 30.66 39 31.32 39 32 C39.66 32.33 40.32 32.66 41 33 C33.9518369 33.65636996 30.77734873 32.15481961 25.375 27.75 C24.11280963 26.76456039 22.84979933 25.78016999 21.5859375 24.796875 C20.6882666 24.0862793 20.6882666 24.0862793 19.77246094 23.36132812 C17.264731 21.435281 14.65518729 19.71565948 12 18 C12.66 19.65 13.32 21.3 14 23 C10.94549921 22.34200096 8.38292362 21.2644784 5.5625 19.9375 C-1.30710531 17.19168431 -8.70046751 16.2314423 -15.6875 19.10546875 C-20.78141236 22.23051696 -23.52039799 25.60956086 -26 31 C-26.66 31 -27.32 31 -28 31 C-28.34467952 24.65534364 -28.38211613 19.60162985 -25 14 C-20.56750533 9.29886929 -16.1540414 5.17335258 -9.47265625 4.89453125 C-6.97722847 4.87703176 -4.49373859 4.9128402 -2 5 C-1.34 3.35 -0.68 1.7 0 0 Z " fill="#C7C7C7" transform="translate(85,132)"/>
<path d="M0 0 C-5.44811813 12.71227564 -18.11652728 20.13051188 -30.18359375 25.38671875 C-33.4316451 26.6721523 -36.7033905 27.84490323 -40 29 C-41.47333841 29.54372803 -42.94595609 30.08941175 -44.41796875 30.63671875 C-45.94498442 31.19620874 -47.47232554 31.75481133 -49 32.3125 C-50.07761597 32.71299561 -50.07761597 32.71299561 -51.17700195 33.12158203 C-54.89827843 34.45301978 -58.03603877 35.33291081 -62 35 C-62.28875 34.401875 -62.5775 33.80375 -62.875 33.1875 C-64.04742026 30.80672208 -64.04742026 30.80672208 -66 28 C-62.54774922 25.08160809 -58.72177011 23.46260452 -54.578125 21.77734375 C-53.48414902 21.32429367 -53.48414902 21.32429367 -52.36807251 20.86209106 C-49.99757909 19.88180192 -47.62388808 18.90953616 -45.25 17.9375 C-43.62103899 17.26607111 -41.9922964 16.59411207 -40.36376953 15.92163086 C-37.91290297 14.90989712 -35.46179179 13.89878892 -33.00967407 12.89009094 C-28.11494861 10.87655482 -23.22923451 8.84357723 -18.3515625 6.7890625 C-16.68818848 6.08922241 -16.68818848 6.08922241 -14.99121094 5.37524414 C-12.9544799 4.51724486 -10.91863239 3.65714439 -8.88378906 2.79467773 C-7.99143555 2.42028564 -7.09908203 2.04589355 -6.1796875 1.66015625 C-5.41382324 1.33668213 -4.64795898 1.01320801 -3.85888672 0.67993164 C-2 0 -2 0 0 0 Z " fill="#ECECEC" transform="translate(250,90)"/>
<path d="M0 0 C-3.57758721 8.36133239 -11.46097506 17.03000967 -19.5390625 21.16796875 C-27.50872018 23.86247206 -35.05704945 24.31918845 -43.4375 24.25 C-44.57171387 24.24613281 -45.70592773 24.24226563 -46.87451172 24.23828125 C-56.34899284 24.1419442 -65.62885385 23.35603148 -75 22 C-72.2974642 19.2974642 -70.13951993 19.24745681 -66.39453125 18.51953125 C-65.01537674 18.24383558 -63.63631131 17.967694 -62.25732422 17.69116211 C-61.53188416 17.54822723 -60.80644409 17.40529236 -60.059021 17.25802612 C-41.02843854 13.48391422 -22.56388879 8.67366194 -4.66796875 1.06640625 C-2 0 -2 0 0 0 Z " fill="#D9D9D9" transform="translate(230,121)"/>
<path d="M0 0 C1.7015625 0.495 1.7015625 0.495 3.4375 1 C6.54376639 2.04504273 6.54376639 2.04504273 8 2 C9.66666667 2 11.33333333 2 13 2 C13 5 13 5 10.98046875 7.0859375 C10.05878906 7.84132812 9.13710937 8.59671875 8.1875 9.375 C7.29417969 10.12523437 6.40085938 10.87546875 5.48046875 11.6484375 C1.05493022 14.88308414 -3.97731022 16.87356521 -9 19 C-10.08434326 19.45987305 -11.16868652 19.91974609 -12.28588867 20.39355469 C-15.74563853 21.84367515 -19.21480143 23.26869319 -22.6875 24.6875 C-23.85861328 25.17283203 -25.02972656 25.65816406 -26.23632812 26.15820312 C-32.1117651 28.56073658 -37.78426633 30.68940757 -44 32 C-39.30091587 26.68396828 -33.47393385 23.16018692 -27.5625 19.3125 C-20.49200497 14.65832121 -13.43663425 10.00372043 -6.5625 5.0625 C-5.71377319 4.45305542 -5.71377319 4.45305542 -4.84790039 3.83129883 C-2.31892816 2.04255261 -2.31892816 2.04255261 0 0 Z " fill="#8F8F8F" transform="translate(156,182)"/>
<path d="M0 0 C2 1 2 1 4 3 C4.66666667 5 5.33333333 7 6 9 C-10.25027407 14.48830011 -27.17827125 17.77714543 -44 21 C-44 20.34 -44 19.68 -44 19 C-43.34 19 -42.68 19 -42 19 C-42 18.01 -42 17.02 -42 16 C-42.99 15.67 -43.98 15.34 -45 15 C-44.67 14.34 -44.34 13.68 -44 13 C-42.09716797 12.70019531 -42.09716797 12.70019531 -39.6171875 12.578125 C-33.80487435 12.10289143 -28.63885271 10.58601418 -23.125 8.75 C-22.16625977 8.43933594 -21.20751953 8.12867187 -20.21972656 7.80859375 C-14.00554071 5.76315228 -7.98780518 3.49725095 -2.046875 0.75 C-1.37140625 0.5025 -0.6959375 0.255 0 0 Z " fill="#DBDBDB" transform="translate(183,117)"/>
<path d="M0 0 C0.66 2.31 1.32 4.62 2 7 C-8.99023522 11.7639734 -19.97271906 16.25958366 -31.5 19.5625 C-32.36455811 19.81338379 -33.22911621 20.06426758 -34.11987305 20.32275391 C-38.52306117 21.53511894 -42.38754045 22.2920226 -47 22 C-43.40958646 19.03721659 -39.46514269 17.09981809 -35.3125 15.0625 C-34.590625 14.70551025 -33.86875 14.34852051 -33.125 13.98071289 C-28.13438965 11.52531012 -23.10883147 9.19863639 -18 7 C-16.6570475 6.40347843 -15.31465569 5.80569385 -13.97265625 5.20703125 C-12.50264964 4.55458503 -11.03259715 3.90224218 -9.5625 3.25 C-8.8509375 2.931521 -8.139375 2.61304199 -7.40625 2.28491211 C-2.22636735 0 -2.22636735 0 0 0 Z " fill="#141414" transform="translate(186,109)"/>
<path d="M0 0 C14.85 0 29.7 0 45 0 C45.495 1.485 45.495 1.485 46 3 C43.93942825 4.91877545 41.87662937 6.83505798 39.8125 8.75 C39.23435547 9.28882813 38.65621094 9.82765625 38.06054688 10.3828125 C30.96779511 16.95462769 30.96779511 16.95462769 28 19 C24.1875 18.75 24.1875 18.75 21 18 C21 18.66 21 19.32 21 20 C20.34 19.67 19.68 19.34 19 19 C19 18.67 19 18.34 19 18 C17.35 17.67 15.7 17.34 14 17 C20.74270808 9.58302111 27.73907051 4.50833091 37.84765625 3.2890625 C39.97767143 3.22456006 39.97767143 3.22456006 41 2 C20.705 1.505 20.705 1.505 0 1 C0 0.67 0 0.34 0 0 Z " fill="#ABABAB" transform="translate(143,166)"/>
<path d="M0 0 C0.66 0.33 1.32 0.66 2 1 C2 1.99 2 2.98 2 4 C2.99 4 3.98 4 5 4 C5.66 4 6.32 4 7 4 C7 4.99 7 5.98 7 7 C-2.68455671 10.91268048 -12.37576982 14.81332076 -22.125 18.5625 C-23.12660156 18.95719482 -23.12660156 18.95719482 -24.1484375 19.35986328 C-25.74421192 19.9662408 -27.37038047 20.49154169 -29 21 C-29.66 20.67 -30.32 20.34 -31 20 C-12.75617377 6.41417196 -12.75617377 6.41417196 -4 3 C-2.63634717 2.04175747 -1.29205831 1.05278825 0 0 Z " fill="#727272" transform="translate(143,193)"/>
<path d="M0 0 C-1.72220774 4.13737481 -4.55588843 7.25873668 -7.4375 10.625 C-7.92798828 11.21023437 -8.41847656 11.79546875 -8.92382812 12.3984375 C-11.15662286 15.02596383 -13.11404736 17.07603157 -16 19 C-16.99 19 -17.98 19 -19 19 C-19 16.69 -19 14.38 -19 12 C-19.66 12 -20.32 12 -21 12 C-19.07373629 7.3448627 -16.39926096 5.61325635 -11.8359375 3.61328125 C-10.69382813 3.18402344 -9.55171875 2.75476563 -8.375 2.3125 C-7.22773438 1.87550781 -6.08046875 1.43851562 -4.8984375 0.98828125 C-2 0 -2 0 0 0 Z " fill="#E8E8E8" transform="translate(230,121)"/>
<path d="M0 0 C0.66 0.33 1.32 0.66 2 1 C1.67 1.66 1.34 2.32 1 3 C1.66 3 2.32 3 3 3 C3 3.66 3 4.32 3 5 C3.99 5.33 4.98 5.66 6 6 C6 6.66 6 7.32 6 8 C6.66 8 7.32 8 8 8 C8 7.34 8 6.68 8 6 C11.63 6.66 15.26 7.32 19 8 C18.01 8.495 18.01 8.495 17 9 C17 9.66 17 10.32 17 11 C19.97 11.495 19.97 11.495 23 12 C22.01 12.66 21.02 13.32 20 14 C19.67 14.99 19.34 15.98 19 17 C20.98 16.67 22.96 16.34 25 16 C25 16.66 25 17.32 25 18 C25.66 18.33 26.32 18.66 27 19 C19.91748557 19.66816174 16.73555655 18.1164226 11.3125 13.6875 C10.03912708 12.68965975 8.76441625 11.69352414 7.48828125 10.69921875 C6.8948291 10.2304834 6.30137695 9.76174805 5.68994141 9.27880859 C3.56081178 7.66765849 1.32782002 6.30411332 -1 5 C-0.67 3.35 -0.34 1.7 0 0 Z " fill="#BEBEBE" transform="translate(99,146)"/>
<path d="M0 0 C0.66 -0.33 1.32 -0.66 2 -1 C2.33 -0.34 2.66 0.32 3 1 C3.99 1.66 4.98 2.32 6 3 C1.05 4.485 1.05 4.485 -4 6 C-4 6.66 -4 7.32 -4 8 C-8.99658081 8.6245726 -11.35621738 8.11073069 -15.4375 5.0625 C-17.49609375 3.41015625 -17.49609375 3.41015625 -19 2 C-19 1.67 -19 1.34 -19 1 C-12.25974631 -0.49921084 -6.81266116 -1.1147991 0 0 Z " fill="#C9C9C9" transform="translate(125,137)"/>
<path d="M0 0 C14.85 0 29.7 0 45 0 C45.495 1.485 45.495 1.485 46 3 C44.59466816 4.34527493 43.17527548 5.6758731 41.75 7 C40.96109375 7.7425 40.1721875 8.485 39.359375 9.25 C37 11 37 11 33 11 C33 10.34 33 9.68 33 9 C31.35 8.34 29.7 7.68 28 7 C28.33 6.34 28.66 5.68 29 5 C31.46875 4.40234375 31.46875 4.40234375 34.5 3.9375 C38.06054218 3.64569564 38.06054218 3.64569564 41 2 C20.705 1.505 20.705 1.505 0 1 C0 0.67 0 0.34 0 0 Z " fill="#CACACA" transform="translate(143,166)"/>
<path d="M0 0 C-0.66 1.98 -1.32 3.96 -2 6 C-1.01 6.33 -0.02 6.66 1 7 C-5.93 8.32 -12.86 9.64 -20 11 C-20 10.34 -20 9.68 -20 9 C-19.34 9 -18.68 9 -18 9 C-18 8.01 -18 7.02 -18 6 C-18.99 5.67 -19.98 5.34 -21 5 C-20.67 4.34 -20.34 3.68 -20 3 C-17.9609375 2.65625 -17.9609375 2.65625 -15.375 2.5 C-12.13325298 2.24492692 -9.17364371 1.89016285 -6.0625 0.9375 C-3 0 -3 0 0 0 Z " fill="#CFCFCF" transform="translate(159,127)"/>
<path d="M0 0 C0.33 1.32 0.66 2.64 1 4 C-0.52994792 5.20442708 -2.05989583 6.40885417 -3.58984375 7.61328125 C-5.27155077 9.05683091 -5.27155077 9.05683091 -6 12 C-4.35 11.67 -2.7 11.34 -1 11 C-1 11.66 -1 12.32 -1 13 C-1.56847656 13.31453125 -2.13695313 13.6290625 -2.72265625 13.953125 C-3.88087891 14.59507812 -3.88087891 14.59507812 -5.0625 15.25 C-5.87976563 15.70117188 -6.69703125 16.15234375 -7.5390625 16.6171875 C-9.69879068 17.83074905 -11.81673378 19.09538156 -13.9375 20.375 C-14.948125 20.91125 -15.95875 21.4475 -17 22 C-17.66 21.67 -18.32 21.34 -19 21 C-18.38511719 20.25234375 -17.77023438 19.5046875 -17.13671875 18.734375 C-15.92435547 17.25710937 -15.92435547 17.25710937 -14.6875 15.75 C-13.88699219 14.77546875 -13.08648437 13.8009375 -12.26171875 12.796875 C-10.9236282 11.14217236 -9.61280467 9.46366962 -8.3671875 7.73828125 C-6.59205461 5.48132657 -4.45674136 4.44884747 -2 3 C-1.34 2.01 -0.68 1.02 0 0 Z " fill="#6C6C6C" transform="translate(92,202)"/>
<path d="M0 0 C0 0.66 0 1.32 0 2 C-1.41538717 2.33872513 -2.83237963 2.67074624 -4.25 3 C-5.03890625 3.185625 -5.8278125 3.37125 -6.640625 3.5625 C-9 4 -9 4 -13 4 C-13 3.34 -13 2.68 -13 2 C-15.31386295 2.28064918 -17.62609008 2.57481689 -19.9375 2.875 C-21.86916016 3.11863281 -21.86916016 3.11863281 -23.83984375 3.3671875 C-24.88269531 3.57601562 -25.92554687 3.78484375 -27 4 C-27.33 4.66 -27.66 5.32 -28 6 C-30.475 5.01 -30.475 5.01 -33 4 C-29.41286101 1.608574 -26.29836684 1.32114854 -22.125 0.875 C-21.37355713 0.79008301 -20.62211426 0.70516602 -19.84790039 0.61767578 C-13.21259101 -0.0809258 -6.67159511 -0.20884993 0 0 Z " fill="#393939" transform="translate(121,134)"/>
<path d="M0 0 C-1.44424635 3.23861303 -3.25772247 5.61969163 -5.625 8.25 C-6.25664062 8.95640625 -6.88828125 9.6628125 -7.5390625 10.390625 C-8.26222656 11.18726563 -8.26222656 11.18726563 -9 12 C-9.99 11.67 -10.98 11.34 -12 11 C-12.5625 9.0625 -12.5625 9.0625 -13 7 C-13.66 6.34 -14.32 5.68 -15 5 C-12.8765984 4.16260219 -10.7512272 3.33019717 -8.625 2.5 C-7.44164062 2.0359375 -6.25828125 1.571875 -5.0390625 1.09375 C-2 0 -2 0 0 0 Z " fill="#DBDBDB" transform="translate(230,121)"/>
<path d="M0 0 C3.3 0 6.6 0 10 0 C4.91626564 6.63709763 -1.2444783 11.17931218 -8 16 C-8.66 15.67 -9.32 15.34 -10 15 C-9.195625 14.4225 -8.39125 13.845 -7.5625 13.25 C-5.02133261 11.01873107 -4.34879632 10.25543229 -4 7 C-3.01 7 -2.02 7 -1 7 C0.72943475 5.68732044 0.72943475 5.68732044 2 4 C2 3.34 2 2.68 2 2 C1.34 1.34 0.68 0.68 0 0 Z " fill="#C3C3C3" transform="translate(140,170)"/>
<path d="M0 0 C-0.96646623 2.43229442 -1.57203455 3.74230463 -3.84765625 5.11254883 C-4.57855469 5.39122803 -5.30945313 5.66990723 -6.0625 5.95703125 C-6.85914062 6.26447266 -7.65578125 6.57191406 -8.4765625 6.88867188 C-9.30929688 7.19353516 -10.14203125 7.49839844 -11 7.8125 C-12.24910156 8.29879883 -12.24910156 8.29879883 -13.5234375 8.79492188 C-18.07728886 10.51551134 -18.07728886 10.51551134 -20 11 C-20.66 10.67 -21.32 10.34 -22 10 C-18.24170286 6.69725403 -14.60976967 4.89329826 -10 3 C-8.700625 2.1646875 -8.700625 2.1646875 -7.375 1.3125 C-4.68111921 -0.17622359 -3.0297636 -0.25969402 0 0 Z " fill="#5C5C5C" transform="translate(134,203)"/>
<path d="M0 0 C14.85 0 29.7 0 45 0 C45.495 1.485 45.495 1.485 46 3 C45.34 3.33 44.68 3.66 44 4 C43.01 3.34 42.02 2.68 41 2 C39.04479191 1.67508765 39.04479191 1.67508765 36.89575195 1.68115234 C36.07512772 1.66128265 35.25450348 1.64141296 34.40901184 1.62094116 C33.0870002 1.60361435 33.0870002 1.60361435 31.73828125 1.5859375 C30.83248825 1.56657135 29.92669525 1.5472052 28.99345398 1.5272522 C26.09989849 1.46746458 23.2063032 1.42107432 20.3125 1.375 C18.35089409 1.33681946 16.38930494 1.29776769 14.42773438 1.2578125 C9.6186256 1.16176368 4.80943834 1.07772957 0 1 C0 0.67 0 0.34 0 0 Z " fill="#ACACAC" transform="translate(143,166)"/>
<path d="M0 0 C2.97 1.65 5.94 3.3 9 5 C8.67 5.66 8.34 6.32 8 7 C6.35 7 4.7 7 3 7 C2.67 6.01 2.34 5.02 2 4 C-3.26170694 5.41167747 -6.72171358 7.74850232 -11 11 C-11.66 10.67 -12.32 10.34 -13 10 C-11.58367866 8.89539041 -10.16692736 7.79133212 -8.75 6.6875 C-7.96109375 6.07261719 -7.1721875 5.45773438 -6.359375 4.82421875 C-4.25444944 3.19673492 -2.12857364 1.59643023 0 0 Z " fill="#BDBDBD" transform="translate(170,172)"/>
<path d="M0 0 C6.91995707 -0.88339877 10.59422159 1.88131168 16 6 C12.23375329 7.25541557 10.62811066 6.37061958 7 5 C7 5.66 7 6.32 7 7 C5 7 5 7 3.375 5.625 C2 4 2 4 2 2 C1.34 2 0.68 2 0 2 C0 1.34 0 0.68 0 0 Z " fill="#C6C6C6" transform="translate(100,147)"/>
<path d="M0 0 C2.31 0.33 4.62 0.66 7 1 C6.01 1.66 5.02 2.32 4 3 C3.67 3.99 3.34 4.98 3 6 C4.98 5.67 6.96 5.34 9 5 C9 5.66 9 6.32 9 7 C9.66 7.33 10.32 7.66 11 8 C3.61538462 8.36923077 3.61538462 8.36923077 0.5 6.5 C0.005 6.005 -0.49 5.51 -1 5 C-0.67 3.35 -0.34 1.7 0 0 Z " fill="#C3C3C3" transform="translate(115,157)"/>
<path d="M0 0 C7.09727428 -0.10808032 13.96094956 0.06145994 21 1 C20.1328125 2.953125 20.1328125 2.953125 19 5 C16.875 5.75 16.875 5.75 15 6 C14.67 5.01 14.34 4.02 14 3 C9.38 2.34 4.76 1.68 0 1 C0 0.67 0 0.34 0 0 Z " fill="#DBDBDB" transform="translate(181,154)"/>
<path d="M0 0 C1.32 1.32 2.64 2.64 4 4 C3.21718695 5.33855056 2.42348123 6.67073644 1.625 8 C1.18414062 8.7425 0.74328125 9.485 0.2890625 10.25 C-0.13632812 10.8275 -0.56171875 11.405 -1 12 C-1.66 12 -2.32 12 -3 12 C-3 8.7 -3 5.4 -3 2 C-2.34 2 -1.68 2 -1 2 C-0.67 1.34 -0.34 0.68 0 0 Z " fill="#A9A9A9" transform="translate(60,151)"/>
<path d="M0 0 C0.33 1.32 0.66 2.64 1 4 C-0.49739583 5.20442708 -1.99479167 6.40885417 -3.4921875 7.61328125 C-5.25292107 9.12270545 -5.25292107 9.12270545 -7 12 C-9.125 12.6875 -9.125 12.6875 -11 13 C-8.65695477 8.14654917 -6.62021082 5.77212649 -2 3 C-1.34 2.01 -0.68 1.02 0 0 Z " fill="#737373" transform="translate(92,202)"/>
<path d="M0 0 C1.60332791 -0.08121924 3.20784026 -0.13929134 4.8125 -0.1875 C6.15248047 -0.23970703 6.15248047 -0.23970703 7.51953125 -0.29296875 C10.41647515 0.04918998 11.22555028 0.75393573 13 3 C12.67 3.66 12.34 4.32 12 5 C9.15449988 4.33989524 6.47674001 3.48275034 3.75 2.4375 C3.04359375 2.16808594 2.3371875 1.89867187 1.609375 1.62109375 C1.07828125 1.41613281 0.5471875 1.21117187 0 1 C0 0.67 0 0.34 0 0 Z " fill="#D6D6D6" transform="translate(106,138)"/>
<path d="M0 0 C0.66 0.66 1.32 1.32 2 2 C1.67 2.33 1.34 2.66 1 3 C-1.19050021 2.90982004 -3.378466 2.75333792 -5.5625 2.5625 C-6.76003906 2.46066406 -7.95757812 2.35882813 -9.19140625 2.25390625 C-10.58166016 2.12822266 -10.58166016 2.12822266 -12 2 C-8.72140711 -1.27859289 -4.28564577 -1.68364655 0 0 Z " fill="#BBBBBB" transform="translate(167,141)"/>
<path d="M0 0 C1.65 0.33 3.3 0.66 5 1 C2.14723863 3.93200474 -0.65079784 6.64315404 -4 9 C-4.66 8.67 -5.32 8.34 -6 8 C-4.7934375 7.13375 -4.7934375 7.13375 -3.5625 6.25 C-1.02133261 4.01873107 -0.34879632 3.25543229 0 0 Z " fill="#B1B1B1" transform="translate(136,177)"/>
<path d="M0 0 C1.20076172 0.06960937 1.20076172 0.06960937 2.42578125 0.140625 C3.23402344 0.17671875 4.04226562 0.2128125 4.875 0.25 C5.79732422 0.31960937 5.79732422 0.31960937 6.73828125 0.390625 C4.73828125 3.390625 4.73828125 3.390625 2.35546875 3.90234375 C1.45054687 3.96035156 0.545625 4.01835937 -0.38671875 4.078125 C-1.75183594 4.17673828 -1.75183594 4.17673828 -3.14453125 4.27734375 C-4.19253906 4.33341797 -4.19253906 4.33341797 -5.26171875 4.390625 C-2.89519796 0.50003419 -2.89519796 0.50003419 0 0 Z " fill="#353535" transform="translate(178.26171875,166.609375)"/>
<path d="M0 0 C-2.35519526 3.79448125 -4.9630133 5.20578369 -9 7 C-8.02086745 1.32103121 -5.73500486 -0.46500039 0 0 Z " fill="#CDCDCD" transform="translate(71,140)"/>
<path d="M0 0 C-2.91985315 2.48728231 -5.14219907 3.71066493 -9 4 C-11.3125 3.0625 -11.3125 3.0625 -13 2 C-8.46298506 0.54815522 -4.81938524 -0.23509196 0 0 Z " fill="#D8D8D8" transform="translate(155,129)"/>
<path d="M0 0 C0.66 0.66 1.32 1.32 2 2 C1.01 3.485 1.01 3.485 0 5 C-0.66 5 -1.32 5 -2 5 C-2.2475 5.61875 -2.495 6.2375 -2.75 6.875 C-4.22047178 9.37480203 -5.41403076 9.83316022 -8 11 C-7.59007813 10.45730469 -7.18015625 9.91460937 -6.7578125 9.35546875 C-6.21898438 8.64003906 -5.68015625 7.92460937 -5.125 7.1875 C-4.59132813 6.47980469 -4.05765625 5.77210938 -3.5078125 5.04296875 C-2.29185219 3.39543703 -1.13583859 1.70375789 0 0 Z " fill="#878787" transform="translate(94,197)"/>
<path d="M0 0 C0.99 0.33 1.98 0.66 3 1 C1.60344703 4.49873271 0.28739516 5.70891831 -3.125 7.25 C-4.21167969 7.75273437 -4.21167969 7.75273437 -5.3203125 8.265625 C-6.15175781 8.62914062 -6.15175781 8.62914062 -7 9 C-6.34 7.68 -5.68 6.36 -5 5 C-4.01 5 -3.02 5 -2 5 C-1.34 3.35 -0.68 1.7 0 0 Z " fill="#727272" transform="translate(99,205)"/>
<path d="M0 0 C2.625 0.375 2.625 0.375 5 1 C4.67 1.66 4.34 2.32 4 3 C4.66 3.66 5.32 4.32 6 5 C3.125 5.1875 3.125 5.1875 0 5 C-0.66 4.01 -1.32 3.02 -2 2 C-1.34 1.34 -0.68 0.68 0 0 Z " fill="#D1D1D1" transform="translate(168,139)"/>
<path d="M0 0 C1.65 0 3.3 0 5 0 C5.66 1.32 6.32 2.64 7 4 C8.98 4 10.96 4 13 4 C13 4.33 13 4.66 13 5 C7.30702655 5.45543788 4.45738181 4.58764877 0 1 C0 0.67 0 0.34 0 0 Z " fill="#A2A2A2" transform="translate(108,140)"/>
<path d="M0 0 C0.99 0.66 1.98 1.32 3 2 C-1.75 5 -1.75 5 -4 5 C-4 4.34 -4 3.68 -4 3 C-4.66 2.67 -5.32 2.34 -6 2 C-3.1875 0.875 -3.1875 0.875 0 0 Z " fill="#616161" transform="translate(85,213)"/>
<path d="M0 0 C0.99 0.66 1.98 1.32 3 2 C-0.93828536 4.31663844 -4.69235185 6.43358249 -9 8 C-6.14723863 5.06799526 -3.34920216 2.35684596 0 0 Z " fill="#B7B7B7" transform="translate(166,175)"/>
<path d="M0 0 C0.90105469 0.01804688 1.80210938 0.03609375 2.73046875 0.0546875 C3.41753906 0.07789063 4.10460937 0.10109375 4.8125 0.125 C4.8125 0.455 4.8125 0.785 4.8125 1.125 C3.678125 1.24875 2.54375 1.3725 1.375 1.5 C-0.3884375 1.809375 -0.3884375 1.809375 -2.1875 2.125 C-2.5175 2.785 -2.8475 3.445 -3.1875 4.125 C-5.6625 3.135 -5.6625 3.135 -8.1875 2.125 C-4.87379 -0.08414 -3.8428979 -0.09981553 0 0 Z " fill="#262626" transform="translate(96.1875,135.875)"/>
<path d="M0 0 C-0.99 1.32 -1.98 2.64 -3 4 C-4.98 3.34 -6.96 2.68 -9 2 C-5.945634 -1.054366 -3.9532319 -1.22686507 0 0 Z " fill="#2B2B2B" transform="translate(250,84)"/>
<path d="M0 0 C0 0.66 0 1.32 0 2 C0.66 2.33 1.32 2.66 2 3 C-4.0546875 3.1953125 -4.0546875 3.1953125 -6 3 C-6.66 2.34 -7.32 1.68 -8 1 C-5.10765685 0.17361624 -3.11257569 0 0 0 Z " fill="#A9A9A9" transform="translate(124,162)"/>
<path d="M0 0 C4.19360449 0.67097672 7.40334352 2.8558394 11 5 C7.80484947 6.06505018 7.00991004 6.27693153 4 5 C1.75 2.4375 1.75 2.4375 0 0 Z " fill="#D5D5D5" transform="translate(105,148)"/>
<path d="M0 0 C2.125 0.9375 2.125 0.9375 4 2 C0.5980513 4.09350689 -2.05272412 4.17942163 -6 4 C-4.03617993 2.49440461 -2.21736634 1.10868317 0 0 Z " fill="#383838" transform="translate(145,127)"/>
<path d="M0 0 C-3.06246747 1.78409802 -5.22079273 2.22880021 -8.75 2.125 C-9.54921875 2.10695312 -10.3484375 2.08890625 -11.171875 2.0703125 C-11.77515625 2.04710937 -12.3784375 2.02390625 -13 2 C-8.53448096 -0.31790713 -4.94391187 -1.64797062 0 0 Z " fill="#424242" transform="translate(158,135)"/>
<path d="M0 0 C0.66 0.33 1.32 0.66 2 1 C-0.12780579 3.34058637 -2.11562221 4.70700306 -5 6 C-5.66 5.34 -6.32 4.68 -7 4 C-1.7265625 0.77734375 -1.7265625 0.77734375 0 0 Z " fill="#2E2E2E" transform="translate(232,108)"/>
</svg>
