<svg xmlns="http://www.w3.org/2000/svg" viewBox="0 0 512 512" width="512" height="512">
  <defs>
    <linearGradient id="chrome" x1="0%" y1="0%" x2="100%" y2="100%">
      <stop offset="0%" stop-color="#E8EAED"/>
      <stop offset="50%" stop-color="#C0C5CE"/>
      <stop offset="100%" stop-color="#7A7E86"/>
    </linearGradient>
    <linearGradient id="chromeText" x1="0%" y1="0%" x2="0%" y2="100%">
      <stop offset="0%" stop-color="#E8EAED"/>
      <stop offset="50%" stop-color="#C0C5CE"/>
      <stop offset="100%" stop-color="#7A7E86"/>
    </linearGradient>
  </defs>
  <rect width="512" height="512" rx="108" fill="#0A0A0C"/>
  <g transform="translate(256 204) scale(3.6) translate(-36 -36)">
    <path d="M36 12 L33 18 L30 16 L32 22 L26 20 L30 26 L22 26 L28 30 L18 32 L28 34 L20 40 L30 38 L24 46 L32 42 L30 52 L36 46 L42 52 L40 42 L48 46 L42 38 L52 40 L44 34 L54 32 L44 30 L50 26 L42 26 L46 20 L40 22 L42 16 L39 18 Z"
      fill="url(#chrome)" stroke="url(#chrome)" stroke-width="0.5" stroke-linejoin="round"/>
    <path d="M34 16 L36 18 L38 16" fill="none" stroke="url(#chrome)" stroke-width="1.2" stroke-linecap="round"/>
    <path d="M36 46 L36 58" fill="none" stroke="url(#chrome)" stroke-width="1.4" stroke-linecap="round"/>
    <path d="M32 58 L36 62 L40 58" fill="none" stroke="url(#chrome)" stroke-width="1.2" stroke-linecap="round" stroke-linejoin="round"/>
  </g>
  <text x="256" y="420" text-anchor="middle"
    font-family="'Inter', 'Helvetica Neue', Arial, sans-serif"
    font-weight="300" font-size="56" letter-spacing="12"
    fill="url(#chromeText)">AGUILA</text>
  <text x="256" y="464" text-anchor="middle"
    font-family="'Inter', 'Helvetica Neue', Arial, sans-serif"
    font-weight="400" font-size="18" letter-spacing="4"
    fill="#7A7E86">PATENTE 3596</text>
</svg>
